<svg width="24" height="24" viewBox="0 0 24 24" fill="none" xmlns="http://www.w3.org/2000/svg">
<path fill-rule="evenodd" clip-rule="evenodd" d="M5 3.9375C4.71821 3.9375 4.44796 4.04944 4.2487 4.2487C4.04944 4.44796 3.9375 4.71821 3.9375 5V19C3.9375 19.2818 4.04944 19.552 4.2487 19.7513C4.44796 19.9506 4.71821 20.0625 5 20.0625H19C19.2818 20.0625 19.552 19.9506 19.7513 19.7513C19.9506 19.552 20.0625 19.2818 20.0625 19V5C20.0625 4.71821 19.9506 4.44796 19.7513 4.2487C19.552 4.04944 19.2818 3.9375 19 3.9375H5ZM2.92287 2.92287C3.47376 2.37199 4.22093 2.0625 5 2.0625H19C19.7791 2.0625 20.5262 2.37199 21.0771 2.92287C21.628 3.47376 21.9375 4.22093 21.9375 5V19C21.9375 19.7791 21.628 20.5262 21.0771 21.0771C20.5262 21.628 19.7791 21.9375 19 21.9375H5C4.22093 21.9375 3.47376 21.628 2.92287 21.0771C2.37199 20.5262 2.0625 19.7791 2.0625 19V5C2.0625 4.22093 2.37199 3.47376 2.92287 2.92287Z" fill="#14367B"/>
</svg>
